<svg width="96" height="76" viewBox="0 0 96 76" fill="none" xmlns="http://www.w3.org/2000/svg">
<g clip-path="url(#clip0_17_232)">
<path d="M19.9395 0C14.4619 0 10.4085 4.76304 10.59 9.92843C10.7644 14.8908 10.5379 21.3184 8.90925 26.5598C7.27575 31.8164 4.51275 35.1463 0 35.574V40.4007C4.51275 40.8284 7.27575 44.1582 8.90925 49.4153C10.5379 54.6567 10.7644 61.0835 10.59 66.0462C10.4085 71.2109 14.4619 75.9747 19.9403 75.9747H76.0676C81.5456 75.9747 85.5979 71.2116 85.4164 66.0462C85.2424 61.0839 85.4685 54.6567 87.0971 49.4153C88.7318 44.1586 91.4873 40.828 96 40.4007V35.574C91.4873 35.1463 88.7318 31.8164 87.0975 26.5598C85.4685 21.3191 85.2424 14.8912 85.4164 9.92843C85.5979 4.76378 81.5456 0 76.0676 0H19.9387H19.9395ZM65.085 46.7672C65.085 53.8799 59.745 58.1933 50.883 58.1933H35.7967C35.3653 58.1932 34.9515 58.0228 34.6464 57.7197C34.3414 57.4165 34.17 57.0054 34.17 56.5768V19.3979C34.17 19.1856 34.212 18.9753 34.2937 18.7792C34.3755 18.583 34.4953 18.4048 34.6464 18.2546C34.7975 18.1045 34.9769 17.9854 35.1744 17.9041C35.3718 17.8228 35.5834 17.781 35.7971 17.781H50.7967C58.1861 17.781 63.0356 21.758 63.0356 27.8633C63.0356 32.1487 59.7731 35.9853 55.617 36.657V36.8809C61.2754 37.4974 65.085 41.3902 65.085 46.7672ZM49.2375 22.9054H40.6361V34.976H47.8811C53.4814 34.976 56.5699 32.7355 56.5699 28.7306C56.5699 24.9779 53.9141 22.9054 49.2379 22.9054H49.2375ZM40.6361 39.7655V53.0674H49.5544C55.3849 53.0674 58.4741 50.743 58.4741 46.3745C58.4741 42.0053 55.299 39.7648 49.1794 39.7648H40.6361V39.7655Z" fill="#756BEE"/>
</g>
<defs>
<clipPath id="clip0_17_232">
<rect width="96" height="76" fill="white"/>
</clipPath>
</defs>
</svg>
