<svg width="71" height="82" viewBox="0 0 71 82" fill="none" xmlns="http://www.w3.org/2000/svg">
<g clip-path="url(#clip0_17_200)">
<path d="M35.4567 81.7483L6.5625 73.7631L0.123413 1.86816H70.8766L64.4308 73.7521L35.4567 81.7483Z" fill="#756BEE"/>
<path d="M58.9125 69.1746L64.4206 7.74634H35.5V75.636L58.9125 69.1746Z" fill="#756BEE"/>
<path d="M14.8848 34.4112L15.6785 43.2288H35.5V34.4112H14.8848ZM13.2895 16.5642L14.0946 25.3818H35.5V16.5642H13.2895ZM35.5 57.3116L35.4612 57.3218L25.5966 54.6702L24.9659 47.6378H16.0743L17.3151 61.4828L35.4592 66.4967L35.5 66.4857V57.3116Z" fill="#EBEBEB"/>
<path d="M56.0587 34.4112L57.6575 16.5642H35.4695V25.3818H47.9505L47.1445 34.4112H35.4695V43.2288H46.3766L45.3482 54.6647L35.4692 57.319V66.4925L53.6277 61.4828L53.7609 59.993L55.8426 36.779L56.0587 34.4112Z" fill="white"/>
</g>
<defs>
<clipPath id="clip0_17_200">
<rect width="71" height="82" fill="white"/>
</clipPath>
</defs>
</svg>
