<svg width="74" height="74" viewBox="0 0 74 74" fill="none" xmlns="http://www.w3.org/2000/svg">
<g clip-path="url(#clip0_17_189)">
<path d="M0 0H74V74H0V0Z" fill="#756BEE"/>
<path d="M19.4574 61.8397L25.1201 58.4126C26.2128 60.3496 27.2066 61.9886 29.5905 61.9886C31.8755 61.9886 33.3165 61.0948 33.3165 57.6179V33.9732H40.2705V57.7162C40.2705 64.9188 36.0484 68.1973 29.8885 68.1973C24.3255 68.1973 21.0964 65.3162 19.4571 61.8391M44.0476 61.0945L49.7098 57.8162C51.2005 60.2504 53.1378 62.0386 56.5649 62.0386C59.4466 62.0386 61.2839 60.5979 61.2839 58.6109C61.2839 56.2267 59.3963 55.382 56.2172 53.9916L54.479 53.2459C49.4618 51.1105 46.1338 48.4281 46.1338 42.7653C46.1338 37.5495 50.1075 33.5754 56.3169 33.5754C60.7378 33.5754 63.9169 35.1156 66.2017 39.139L60.787 42.6164C59.5946 40.4806 58.3036 39.6362 56.3166 39.6362C54.2799 39.6362 52.9883 40.9277 52.9883 42.6164C52.9883 44.7026 54.2799 45.5475 57.2601 46.8391L58.9985 47.584C64.9099 50.1176 68.2378 52.7004 68.2378 58.5117C68.2378 64.7711 63.3203 68.1982 56.7138 68.1982C50.2564 68.1982 46.0838 65.1185 44.0474 61.0948" fill="white"/>
</g>
<defs>
<clipPath id="clip0_17_189">
<rect width="74" height="74" fill="white"/>
</clipPath>
</defs>
</svg>
