<svg width="87" height="75" viewBox="0 0 87 75" fill="none" xmlns="http://www.w3.org/2000/svg">
<g clip-path="url(#clip0_17_234)">
<path d="M73.3284 51.0495C73.696 50.8397 74.0016 50.5374 74.2146 50.1731C74.4275 49.8088 74.5403 49.3952 74.5417 48.9738L74.5852 35.0708C74.5865 34.6493 74.6992 34.2357 74.9122 33.8713C75.1252 33.5069 75.4308 33.2046 75.7984 32.9948L83.3796 28.6657C83.7471 28.4559 84.1635 28.3458 84.5872 28.3465C85.011 28.3472 85.4271 28.4586 85.7938 28.6696C86.1606 28.8805 86.465 29.1837 86.6768 29.5486C86.8885 29.9134 86.9999 30.3272 87 30.7485V56.0248C87 56.4475 86.8878 56.8626 86.6748 57.2284C86.4618 57.5941 86.1555 57.8975 85.7868 58.1079L57.1753 74.4448C56.8098 74.6534 56.3958 74.7634 55.9743 74.7638C55.5528 74.7642 55.1385 74.6551 54.7726 74.4471L32.3191 61.6802C31.9492 61.4703 31.6417 61.1668 31.4277 60.8006C31.2138 60.4345 31.101 60.0186 31.1008 59.5951V46.8498C31.1008 46.8356 31.1178 46.8262 31.1324 46.8329C31.1443 46.8404 31.1613 46.8329 31.1613 46.816V46.8018C31.1613 46.7924 31.1661 46.7826 31.1759 46.7779L49.6688 36.2167C49.6858 36.2069 49.6784 36.1806 49.659 36.1806C49.6539 36.1806 49.6489 36.1785 49.6453 36.1749C49.6417 36.1713 49.6396 36.1664 49.6396 36.1613L49.676 23.666C49.6777 23.2435 49.5673 22.828 49.3559 22.4614C49.1445 22.0948 48.8396 21.7901 48.4719 21.5781C48.1042 21.3661 47.6867 21.2543 47.2617 21.2539C46.8366 21.2535 46.419 21.3645 46.0509 21.5758L32.3069 29.4491C31.9401 29.6591 31.5243 29.7696 31.101 29.7696C30.6777 29.7696 30.2618 29.6591 29.895 29.4491L16.1076 21.5573C15.7403 21.347 15.3238 21.2364 14.8999 21.2367C14.476 21.2369 14.0597 21.348 13.6926 21.5588C13.3256 21.7696 13.0208 22.0726 12.8088 22.4375C12.5968 22.8024 12.4851 23.2163 12.4848 23.6377V46.2208C12.4852 46.6417 12.3742 47.0553 12.1631 47.4202C11.9521 47.7851 11.6483 48.0884 11.2821 48.2998C10.916 48.5113 10.5005 48.6234 10.077 48.6249C9.65363 48.6265 9.23725 48.5174 8.86959 48.3086L1.218 43.9593C0.84749 43.7489 0.539619 43.4447 0.325686 43.0777C0.111752 42.7107 -0.000616843 42.2939 2.54682e-06 41.8698L0.0679713 2.39678C0.0690553 1.97611 0.181237 1.5631 0.393295 1.19906C0.605353 0.835025 0.909851 0.532723 1.27633 0.322397C1.64281 0.112071 2.05842 0.00109611 2.48159 0.00057319C2.90476 5.02701e-05 3.32064 0.109998 3.68765 0.319417L29.8974 15.2836C30.2637 15.4927 30.6786 15.6027 31.101 15.6027C31.5233 15.6027 31.9383 15.4927 32.3045 15.2836L58.5065 0.318742C58.8741 0.108828 59.2908 -0.00126419 59.7147 -0.000484165C60.1386 0.000295862 60.5549 0.111921 60.9217 0.323186C61.2885 0.53445 61.5929 0.837921 61.8045 1.20313C62.016 1.56835 62.1272 1.98245 62.1268 2.40388V41.886C62.1271 42.3083 62.0153 42.7233 61.8028 43.089C61.5902 43.4547 61.2845 43.7583 60.9163 43.9691L47.1941 51.8252C46.8255 52.0364 46.5195 52.3405 46.3071 52.707C46.0946 53.0734 45.9833 53.4891 45.9842 53.912C45.9852 54.335 46.0984 54.7501 46.3126 55.1156C46.5267 55.4811 46.834 55.7839 47.2036 55.9934L54.773 60.2772C55.1387 60.4841 55.5526 60.5925 55.9735 60.5917C56.3943 60.5908 56.8077 60.4806 57.1726 60.2721L73.3288 51.0491L73.3284 51.0495ZM74.9162 15.6323C74.9165 16.0571 75.0302 16.4744 75.2456 16.8413C75.461 17.2083 75.7705 17.5119 76.1425 17.7212C76.5144 17.9305 76.9356 18.038 77.363 18.0327C77.7904 18.0274 78.2087 17.9095 78.5753 17.691L85.8255 13.3667C86.1834 13.1535 86.4797 12.8519 86.6855 12.4911C86.8913 12.1303 86.9997 11.7227 87 11.3079V2.49543C86.9993 2.07074 86.8853 1.65383 86.6697 1.28718C86.4541 0.920529 86.1446 0.61725 85.7727 0.408242C85.4008 0.199234 84.9798 0.0919677 84.5526 0.0973729C84.1254 0.102778 83.7073 0.220662 83.3409 0.439012L76.091 4.76334C75.733 4.97651 75.4366 5.27821 75.2308 5.63906C75.0249 5.99991 74.9165 6.40761 74.9162 6.82246V15.6346V15.6323Z" fill="#756BEE"/>
</g>
<defs>
<clipPath id="clip0_17_234">
<rect width="87" height="75" fill="white"/>
</clipPath>
</defs>
</svg>
