<svg width="79" height="79" viewBox="0 0 79 79" fill="none" xmlns="http://www.w3.org/2000/svg">
<g clip-path="url(#clip0_12_88)">
<mask id="mask0_12_88" style="mask-type:alpha" maskUnits="userSpaceOnUse" x="0" y="0" width="79" height="79">
<path d="M0 0H79V79H0V0Z" fill="white"/>
</mask>
<g mask="url(#mask0_12_88)">
<path d="M36.9128 0.0196732C36.7416 0.0361315 36.2018 0.0920898 35.7146 0.128298C24.4966 1.14213 13.9896 7.19551 7.32725 16.501C3.64816 21.6088 1.2565 27.5292 0.3555 33.7593C0.0395 35.9318 0 36.5703 0 39.5131C0 42.4558 0.0395 43.0977 0.3555 45.2669C2.50167 60.1025 13.0613 72.5647 27.3768 77.1829C29.941 78.0091 32.6435 78.572 35.7146 78.9143C36.9128 79.046 42.0872 79.046 43.2854 78.9143C48.5883 78.3251 53.0847 77.0118 57.5153 74.7504C58.1967 74.4048 58.3283 74.3093 58.2362 74.2336C56.0689 71.3755 53.9238 68.5007 51.801 65.6094L45.4842 57.0741L37.5711 45.3591C34.9381 41.4407 32.2806 37.5389 29.5987 33.6539C29.569 33.644 29.5394 38.8482 29.523 45.2077C29.4999 56.3335 29.49 56.7812 29.3518 57.0445C29.2169 57.3518 28.9764 57.6006 28.6737 57.7456C28.4268 57.8707 28.2129 57.8938 27.0443 57.8938H25.7079L25.3524 57.6699C25.1324 57.531 24.9539 57.3355 24.8356 57.1038L24.671 56.7581L24.6875 41.2741L24.7105 25.7835L24.9508 25.4807C25.1126 25.2914 25.3065 25.132 25.5236 25.01C25.8396 24.8553 25.9614 24.8421 27.3011 24.8421C28.8745 24.8421 29.1378 24.9014 29.546 25.349C29.6612 25.4741 33.947 31.9324 39.0754 39.7073L54.6581 63.3151L60.9123 72.7886L61.2316 72.5812C64.2415 70.5801 66.9703 68.1856 69.3455 65.4613C74.3231 59.7644 77.5518 52.7527 78.6445 45.2669C78.9605 43.0944 79 42.4558 79 39.5131C79 36.5703 78.9605 35.9318 78.6445 33.7593C76.4983 18.927 65.9387 6.46146 51.6232 1.84326C48.9477 0.992589 46.1927 0.415783 43.4006 0.121715C42.6567 0.0427148 37.5546 -0.0428685 36.916 0.0229648L36.9128 0.0196732ZM53.0847 23.9172C53.2683 24.0096 53.4317 24.1375 53.5656 24.2934C53.6995 24.4494 53.8012 24.6302 53.8648 24.8257C53.9241 25.0232 53.9405 29.3188 53.9241 38.9963L53.901 52.8806L51.4553 49.128L48.9997 45.3755V35.2833C48.9997 28.7559 49.0294 25.089 49.0755 24.9113C49.1303 24.7057 49.2262 24.5133 49.3574 24.3458C49.4887 24.1784 49.6526 24.0393 49.8391 23.9369C50.1584 23.7723 50.2736 23.7592 51.485 23.7592C52.6272 23.7592 52.828 23.7756 53.0847 23.9139V23.9172Z" fill="#756BEE"/>
</g>
</g>
<defs>
<clipPath id="clip0_12_88">
<rect width="79" height="79" fill="white"/>
</clipPath>
</defs>
</svg>
