<svg width="72" height="81" viewBox="0 0 72 81" fill="none" xmlns="http://www.w3.org/2000/svg">
<g clip-path="url(#clip0_34_2)">
<path d="M35.8407 80.8499C34.7277 80.8499 33.6889 80.5528 32.7242 80.0329L22.8549 74.165C21.3709 73.348 22.1129 73.0509 22.5581 72.9023C24.5615 72.2339 24.9325 72.0853 27.0102 70.8967C27.2331 70.7481 27.5299 70.8224 27.7522 70.971L35.3213 75.5019C35.6181 75.6505 35.9891 75.6505 36.2117 75.5019L65.8195 58.3442C66.1163 58.1957 66.2647 57.8986 66.2647 57.5272V23.2855C66.2647 22.9141 66.1163 22.617 65.8195 22.4685L36.2117 5.38478C35.9149 5.23624 35.5439 5.23624 35.3213 5.38478L5.71351 22.4688C5.41671 22.6173 5.2683 22.9887 5.2683 23.2858V57.5272C5.2683 57.8243 5.41671 58.1957 5.71351 58.3442L13.802 63.0234C18.1802 65.2516 20.9254 62.6521 20.9254 60.0525V26.2564C20.9254 25.8108 21.2967 25.3652 21.8161 25.3652H25.6006C26.0458 25.3652 26.491 25.7365 26.491 26.2564V60.0522C26.491 65.9201 23.3001 69.3367 17.7347 69.3367C16.0281 69.3367 14.6925 69.3367 10.9082 67.4798L3.11646 63.0234C1.18722 61.909 0 59.8294 0 57.6012V23.3601C0 21.1319 1.18722 19.0522 3.11646 17.9378L32.7242 0.780114C34.5793 -0.259713 37.1021 -0.259713 38.9572 0.780114L68.565 17.9378C70.4942 19.0519 71.6814 21.1316 71.6814 23.3601V57.6015C71.6814 59.8297 70.4942 61.9093 68.565 63.0234L38.9572 80.1817C37.9926 80.6273 36.8795 80.8502 35.8407 80.8502V80.8499ZM44.9678 57.3041C31.982 57.3041 29.3107 51.3622 29.3107 46.3114C29.3107 45.8657 29.6817 45.4201 30.2011 45.4201H34.0596C34.5048 45.4201 34.8761 45.7172 34.8761 46.1628C35.4697 50.0993 37.1763 52.0307 45.042 52.0307C51.2752 52.0307 53.9467 50.6195 53.9467 47.2772C53.9467 45.3458 53.2047 43.9346 43.4837 42.9688C35.3955 42.1518 30.3495 40.3692 30.3495 33.9074C30.3495 27.8907 35.3952 24.3256 43.8547 24.3256C53.3528 24.3256 58.0278 27.5936 58.6214 34.7242C58.6214 34.947 58.5472 35.1698 58.3988 35.3926C58.2504 35.5412 58.0278 35.6897 57.8052 35.6897H53.9467C53.5754 35.6897 53.2047 35.3926 53.1302 35.0213C52.2398 30.9362 49.9395 29.5993 43.8547 29.5993C37.0282 29.5993 36.2117 31.976 36.2117 33.7586C36.2117 35.9128 37.1763 36.581 46.3776 37.7694C55.5049 38.9577 59.8086 40.6663 59.8086 47.0541C59.7344 53.5904 54.3919 57.3041 44.9678 57.3041V57.3041Z" fill="#756BEE"/>
</g>
<defs>
<clipPath id="clip0_34_2">
<rect width="71.6814" height="81" fill="white"/>
</clipPath>
</defs>
</svg>
