<svg width="85" height="76" viewBox="0 0 85 76" fill="none" xmlns="http://www.w3.org/2000/svg">
<g clip-path="url(#clip0_17_192)">
<path d="M69.8869 24.6082C68.9823 24.2966 68.0701 24.008 67.151 23.7425C67.3054 23.1092 67.4475 22.4835 67.5737 21.8689C69.6449 11.7752 68.2909 3.64352 63.666 0.966186C59.2317 -1.60048 51.9798 1.07585 44.6559 7.47485C43.9341 8.10663 43.2283 8.75662 42.5392 9.42419C42.0779 8.98027 41.6084 8.54498 41.131 8.11852C33.4551 1.27652 25.7613 -1.60715 21.1414 1.07785C16.7111 3.65252 15.3993 11.2969 17.264 20.8629C17.4495 21.8103 17.659 22.7528 17.8922 23.6895C16.8031 24.0002 15.7522 24.3309 14.7465 24.6829C5.74713 27.8329 0 32.7692 0 37.8895C0 43.1779 6.16981 48.4822 15.543 51.6985C16.303 51.9582 17.0692 52.1988 17.841 52.4202C17.5904 53.4291 17.3678 54.4448 17.1737 55.4662C15.396 64.8662 16.7842 72.3299 21.2025 74.8882C25.766 77.5302 33.4253 74.8149 40.883 68.2699C41.4878 67.7378 42.0792 67.1906 42.6567 66.6289C43.403 67.3517 44.1692 68.0535 44.9544 68.7335C52.1787 74.9742 59.3134 77.4942 63.7274 74.9289C68.2865 72.2792 69.7684 64.2612 67.8446 54.5062C67.6931 53.742 67.5231 52.9815 67.3349 52.2255C67.8728 52.0655 68.4008 51.9009 68.9154 51.7295C78.6599 48.4885 85 43.2485 85 37.8895C85 32.7505 79.0673 27.7809 69.8869 24.6082ZM67.7736 48.2695C67.3087 48.4239 66.8319 48.5729 66.3458 48.7179C65.27 45.2989 63.8184 41.6635 62.0417 37.9072C63.737 34.2405 65.1329 30.6515 66.1785 27.2549C67.0481 27.5075 67.8918 27.7739 68.7052 28.0549C76.5711 30.7735 81.3689 34.7925 81.3689 37.8895C81.3689 41.1882 76.1872 45.4705 67.7736 48.2695ZM64.2826 55.2142C65.1332 59.5275 65.2544 63.4275 64.691 66.4765C64.185 69.2162 63.167 71.0425 61.9079 71.7742C59.2294 73.3309 53.5009 71.3075 47.3228 65.9702C46.5924 65.338 45.8797 64.6855 45.1855 64.0135C47.5807 61.3839 49.9744 58.3269 52.3105 54.9315C56.4197 54.5655 60.3019 53.9669 63.8224 53.1499C63.992 53.8342 64.1454 54.5225 64.2826 55.2142ZM28.9784 71.5052C26.3613 72.4329 24.2768 72.4595 23.0167 71.7302C20.3356 70.1779 19.221 64.1849 20.7413 56.1462C20.9221 55.1963 21.129 54.2516 21.3619 53.3132C24.8436 54.0865 28.6975 54.6425 32.8163 54.9779C35.1684 58.3002 37.6311 61.3539 40.113 64.0279C39.5856 64.5402 39.0456 65.0395 38.4937 65.5252C35.1956 68.4192 31.8909 70.4725 28.9784 71.5052ZM16.7178 48.2492C12.573 46.8269 9.15012 44.9785 6.80398 42.9615C4.69559 41.1492 3.63143 39.3495 3.63143 37.8895C3.63143 34.7822 8.24566 30.8189 15.9418 28.1252C16.8758 27.7985 17.8533 27.4902 18.8677 27.2009C19.9315 30.6742 21.3267 34.3059 23.0104 37.9782C21.3048 41.7049 19.8897 45.3945 18.8155 48.9089C18.111 48.7063 17.4115 48.4863 16.7178 48.2492ZM20.8277 20.1625C19.2303 11.9669 20.2911 5.78452 22.961 4.23285C25.8045 2.58019 32.0925 4.93652 38.7202 10.8445C39.1523 11.2306 39.5775 11.6246 39.9955 12.0262C37.5258 14.6885 35.0857 17.7195 32.7546 21.0222C28.7569 21.3942 24.9302 21.9915 21.412 22.7919C21.1953 21.9206 21.0004 21.044 20.8277 20.1629V20.1625ZM57.4929 29.2519C56.6619 27.8108 55.8001 26.3879 54.908 24.9842C57.62 25.3285 60.2185 25.7855 62.6586 26.3442C61.9262 28.7015 61.0131 31.1659 59.9383 33.6925C59.1527 32.1961 58.3374 30.7156 57.4929 29.2519ZM42.5408 14.6315C44.2156 16.4532 45.893 18.4869 47.5429 20.6935C44.196 20.5348 40.8436 20.5342 37.4966 20.6915C39.1481 18.5052 40.8398 16.4742 42.5408 14.6315ZM27.4929 29.2769C26.6589 30.7288 25.8588 32.2001 25.0933 33.6895C24.0361 31.1719 23.1313 28.6962 22.3925 26.3055C24.8177 25.7609 27.4039 25.3155 30.0986 24.9775C29.1966 26.3898 28.3278 27.8232 27.4929 29.2765V29.2769ZM30.176 51.0609C27.3919 50.7489 24.7669 50.3265 22.3424 49.7965C23.0928 47.3632 24.0175 44.8349 25.0976 42.2632C25.8662 43.7537 26.6696 45.2259 27.5071 46.6785C28.3684 48.1719 29.2603 49.6345 30.176 51.0609ZM42.6411 61.4042C40.9199 59.5402 39.2033 57.4779 37.5268 55.2599C39.1545 55.3239 40.8136 55.3565 42.5 55.3565C44.2325 55.3565 45.9452 55.3175 47.6309 55.2422C45.9757 57.5002 44.3046 59.5655 42.6411 61.4042ZM59.9725 42.1319C61.1087 44.7319 62.0663 47.2469 62.8266 49.6385C60.3623 50.2032 57.7014 50.6579 54.8977 50.9955C55.7961 49.5657 56.6661 48.1181 57.5071 46.6535C58.3622 45.1649 59.1842 43.6573 59.9725 42.1319ZM54.3618 44.8322C53.0743 47.0776 51.7143 49.2805 50.2841 51.4372C47.6935 51.6214 45.0971 51.7129 42.5 51.7115C39.8547 51.7115 37.2818 51.6289 34.8042 51.4675C33.3367 49.3158 31.9508 47.1091 30.6495 44.8522H30.6498C29.3546 42.6072 28.1448 40.3137 27.023 37.9765C28.142 35.6388 29.3481 33.3442 30.6388 31.0975L30.6385 31.0979C31.9288 28.8506 33.3036 26.6533 34.76 24.5109C37.2878 24.3189 39.8799 24.2189 42.4997 24.2189H42.5C45.1317 24.2189 47.7272 24.3199 50.2543 24.5132C51.696 26.6525 53.062 28.8422 54.3499 31.0782C55.6449 33.3199 56.867 35.6033 58.0142 37.9249C56.8788 40.2701 55.6606 42.574 54.3618 44.8322ZM61.8524 4.12419C64.6986 5.77219 65.8056 12.4179 64.0173 21.1329C63.9031 21.6889 63.7749 22.2552 63.6354 22.8295C60.1086 22.0122 56.2793 21.4045 52.27 21.0269C49.9345 17.6879 47.5143 14.6522 45.0849 12.0242C45.7216 11.408 46.3734 10.8078 47.0399 10.2242C53.3153 4.74185 59.1803 2.57719 61.8524 4.12419ZM42.5 30.2695C46.6919 30.2695 50.0902 33.6812 50.0902 37.8895C50.0902 42.0979 46.6919 45.5095 42.5 45.5095C38.3081 45.5095 34.9098 42.0979 34.9098 37.8895C34.9098 33.6812 38.3081 30.2695 42.5 30.2695Z" fill="#756BEE"/>
</g>
<defs>
<clipPath id="clip0_17_192">
<rect width="85" height="76" fill="white"/>
</clipPath>
</defs>
</svg>
