<svg width="79" height="75" viewBox="0 0 79 75" fill="none" xmlns="http://www.w3.org/2000/svg">
<g clip-path="url(#clip0_12_98)">
<path d="M54.7387 52.172C57.654 51.8714 59.8657 49.3681 59.7651 46.3638C59.6648 43.3598 57.1513 40.9565 54.1354 40.9565H53.9345C50.8177 41.0567 48.4051 43.6601 48.5057 46.7643C48.6063 48.2665 49.2093 49.5682 50.1141 50.4695C46.6961 57.1789 41.4685 62.0856 33.6272 66.1912C28.299 68.9951 22.7699 69.9965 17.2408 69.2957C12.7169 68.6948 9.19827 66.6922 6.98627 63.3873C3.76948 58.4806 3.46799 53.1732 6.18238 47.866C8.09257 44.0607 11.1082 41.2568 13.0183 39.8548C12.6163 38.5531 12.0129 36.3501 11.7115 34.7481C-2.86559 45.2625 -1.35749 59.4821 3.06589 66.1912C6.38327 71.1984 13.1189 74.3026 20.5582 74.3026C22.5687 74.3026 24.5792 74.1022 26.59 73.6017C39.458 71.0982 49.2096 63.4875 54.7387 52.172ZM72.4322 39.7549C64.7917 30.8425 53.5324 25.9359 40.6643 25.9359H39.0559C38.1511 24.1334 36.241 22.9316 34.1299 22.9316H33.9287C30.8125 23.0318 28.3999 25.6352 28.5002 28.7398C28.6008 31.7438 31.114 34.1471 34.1299 34.1471H34.3308C36.5424 34.0469 38.4526 32.645 39.2568 30.7423H41.0664C48.7069 30.7423 55.945 32.9453 62.4798 37.2513C67.5061 40.5559 71.1253 44.862 73.1358 50.069C74.8448 54.2748 74.7442 58.3804 72.9346 61.8855C70.1199 67.1926 65.395 70.0967 59.1621 70.0967C55.1408 70.0967 51.3207 68.8949 49.3099 67.9937C48.2042 68.9951 46.1934 70.5971 44.7859 71.5989C49.109 73.6014 53.5324 74.7031 57.7546 74.7031C67.4055 74.7031 74.5433 69.3956 77.2577 64.0884C80.173 58.2802 79.9718 48.2665 72.4322 39.7549ZM21.3624 53.874C21.463 56.8783 23.9762 59.2814 26.9921 59.2814H27.1933C30.3098 59.1815 32.7224 56.5777 32.6218 53.4735C32.5215 50.4692 30.008 48.0661 26.9921 48.0661H26.7912C26.59 48.0661 26.2882 48.0661 26.0876 48.166C21.9657 41.3567 20.2567 33.9467 20.86 25.9356C21.2618 19.9273 23.2726 14.72 26.7912 10.4139C29.7065 6.70881 35.3362 4.90635 39.1565 4.80646C49.8126 4.60605 54.3363 17.8242 54.6381 23.1317C55.945 23.432 58.1567 24.1331 59.6648 24.6338C58.4582 8.41168 48.4051 0 38.7544 0C29.7065 0 21.3624 6.50902 18.0447 16.1222C13.4204 28.9399 16.4363 41.2568 22.066 50.9702C21.5636 51.671 21.2618 52.7726 21.3624 53.8743V53.874Z" fill="#756BEE"/>
</g>
<defs>
<clipPath id="clip0_12_98">
<rect width="79" height="75" fill="white"/>
</clipPath>
</defs>
</svg>
