<svg width="69" height="69" viewBox="0 0 69 69" fill="none" xmlns="http://www.w3.org/2000/svg">
<g clip-path="url(#clip0_17_180)">
<path d="M5.39062 0H63.6094C66.5866 0 69 2.41338 69 5.39062V63.6094C69 66.5866 66.5866 69 63.6094 69H5.39062C2.41338 69 0 66.5866 0 63.6094V5.39062C0 2.41338 2.41338 0 5.39062 0Z" fill="#756BEE"/>
<path d="M40.5693 54.0343V61.4787C41.78 62.0992 43.2121 62.5644 44.8651 62.8746C46.5181 63.1849 48.2604 63.3398 50.0921 63.3398C51.8769 63.3398 53.5728 63.1692 55.1792 62.828C56.7857 62.4868 58.1945 61.9245 59.405 61.1415C60.6157 60.3583 61.5741 59.3346 62.2806 58.0705C62.9868 56.8067 63.3398 55.2442 63.3398 53.3831C63.3398 52.0338 63.138 50.8511 62.7345 49.8352C62.3354 48.8263 61.7421 47.9055 60.9882 47.1251C60.2278 46.334 59.3157 45.6246 58.2527 44.9964C57.1894 44.3683 55.9903 43.7751 54.6553 43.2169C53.6774 42.8134 52.8006 42.4221 52.0244 42.042C51.2484 41.662 50.5886 41.2744 50.0455 40.8787C49.5021 40.4833 49.083 40.0645 48.7881 39.6224C48.4933 39.1804 48.3458 38.6804 48.3458 38.122C48.3458 37.6101 48.4776 37.149 48.7415 36.7379C49.0054 36.3269 49.3781 35.9741 49.8592 35.6795C50.3404 35.3846 50.9301 35.156 51.6287 34.993C52.3271 34.8302 53.1033 34.7488 53.9569 34.7488C54.5779 34.7488 55.2337 34.7954 55.9242 34.8884C56.615 34.9814 57.3096 35.1248 58.0082 35.3188C58.7046 35.5119 59.3856 35.7569 60.0454 36.0517C60.6851 36.3352 61.297 36.6778 61.8731 37.0751V30.1193C60.7399 29.6851 59.502 29.3633 58.1595 29.1538C56.8169 28.9444 55.2763 28.8398 53.5378 28.8398C51.7683 28.8398 50.0921 29.0299 48.5089 29.4099C46.9257 29.7897 45.5325 30.3829 44.3295 31.1893C43.1266 31.9961 42.176 33.0235 41.4774 34.272C40.779 35.5204 40.4297 37.0131 40.4297 38.7502C40.4297 40.9679 41.0698 42.86 42.3506 44.4266C43.6312 45.9928 45.575 47.3189 48.1828 48.4046C49.1454 48.7966 50.1002 49.2077 51.0465 49.6377C51.9314 50.0409 52.6958 50.4595 53.34 50.8937C53.9841 51.3279 54.4925 51.8009 54.865 52.3128C55.2375 52.8246 55.4237 53.4063 55.4237 54.0577C55.4268 54.5266 55.3063 54.9879 55.0744 55.3954C54.8418 55.8062 54.4884 56.163 54.0151 56.4654C53.5418 56.7679 52.9518 57.0042 52.2457 57.1749C51.5395 57.3455 50.7128 57.4309 49.766 57.4309C48.1518 57.4309 46.5532 57.1479 44.9699 56.5816C43.3864 56.0156 41.9197 55.1666 40.5693 54.0343ZM28.1612 35.5086H37.7344V29.3789H11.0508V35.5086H20.5774V62.8008H28.1612V35.5086Z" fill="white"/>
</g>
<defs>
<clipPath id="clip0_17_180">
<rect width="69" height="69" fill="white"/>
</clipPath>
</defs>
</svg>
