<svg width="43" height="43" viewBox="0 0 43 43" fill="none" xmlns="http://www.w3.org/2000/svg">
<g clip-path="url(#clip0_17_138)">
<path d="M0 21.5C0 27.2022 2.26517 32.6708 6.2972 36.7028C10.3292 40.7348 15.7978 43 21.5 43C27.2022 43 32.6708 40.7348 36.7028 36.7028C40.7348 32.6708 43 27.2022 43 21.5C43 15.7978 40.7348 10.3292 36.7028 6.2972C32.6708 2.26517 27.2022 0 21.5 0C15.7978 0 10.3292 2.26517 6.2972 6.2972C2.26517 10.3292 0 15.7978 0 21.5H0ZM15.867 29.0331C15.743 29.1614 15.5948 29.2638 15.4308 29.3342C15.2669 29.4046 15.0906 29.4417 14.9121 29.4432C14.7337 29.4448 14.5568 29.4108 14.3916 29.3432C14.2265 29.2757 14.0765 29.1759 13.9503 29.0497C13.8241 28.9235 13.7243 28.7735 13.6568 28.6084C13.5892 28.4432 13.5552 28.2663 13.5568 28.0879C13.5583 27.9094 13.5954 27.7331 13.6658 27.5692C13.7362 27.4052 13.8386 27.257 13.9669 27.133L24.9749 16.125H17.5359C17.1796 16.125 16.8378 15.9834 16.5858 15.7314C16.3338 15.4794 16.1922 15.1376 16.1922 14.7812C16.1922 14.4249 16.3338 14.0831 16.5858 13.8311C16.8378 13.5791 17.1796 13.4375 17.5359 13.4375H28.2188C28.5751 13.4375 28.9169 13.5791 29.1689 13.8311C29.4209 14.0831 29.5625 14.4249 29.5625 14.7812V25.4641C29.5625 25.8204 29.4209 26.1622 29.1689 26.4142C28.9169 26.6662 28.5751 26.8078 28.2188 26.8078C27.8624 26.8078 27.5206 26.6662 27.2686 26.4142C27.0166 26.1622 26.875 25.8204 26.875 25.4641V18.0251L15.867 29.0331Z" fill="#756BEE"/>
</g>
<defs>
<clipPath id="clip0_17_138">
<rect width="43" height="43" fill="white"/>
</clipPath>
</defs>
</svg>
