<svg width="99" height="132" viewBox="0 0 99 132" fill="none" xmlns="http://www.w3.org/2000/svg">
<path fill-rule="evenodd" clip-rule="evenodd" d="M54.6084 4.49233C52.9291 4.32015 51.2248 4.23193 49.5 4.23193C47.9375 4.23193 46.3919 4.30433 44.8664 4.44595L43.5086 9.63182C45.4682 9.36811 47.4682 9.23193 49.5 9.23193C51.7096 9.23193 53.8816 9.39298 56.0049 9.70397L54.6084 4.49233ZM60.1788 10.5215C79.5979 15.3045 94 32.8363 94 53.7319C94 67.8781 87.3992 80.4826 77.1096 88.6335L78.5066 93.847C90.9232 84.8532 99 70.2358 99 53.7319C99 29.5458 81.6538 9.41101 58.7233 5.08968L60.1788 10.5215ZM0 53.7319C0 29.1134 17.972 8.6924 41.5118 4.87315L40.1106 10.2243C20.043 14.5344 5 32.3764 5 53.7319C5 66.6162 10.4757 78.2216 19.2269 86.348L17.8099 91.7597C6.92576 82.6796 0 69.0146 0 53.7319ZM74.3948 90.6223L75.7561 95.7024C68.1456 100.473 59.1449 103.232 49.5 103.232C44.224 103.232 39.1408 102.407 34.3724 100.878L35.6413 96.0316C40.0028 97.4596 44.6612 98.2319 49.5 98.2319C58.7225 98.2319 67.2897 95.4264 74.3948 90.6223ZM32.6831 94.9446C28.7709 93.3466 25.1371 91.2077 21.8745 88.6209L20.5041 93.8548C23.848 96.2755 27.5064 98.2885 31.4064 99.8208L32.6831 94.9446Z" fill="#756BEE"/>
<path d="M43.8496 3.74558L58.8319 3.74557L54.3341 14.7818L24.0869 127.666L11.3606 127.666L43.8496 3.74558Z" fill="#756BEE"/>
<path d="M43.0082 6.97949L55.6979 4.23245L75.0615 95.5526L62.1824 95.5526L43.0082 6.97949Z" fill="#756BEE"/>
<rect x="32.459" y="78.8887" width="12.9836" height="29.2131" transform="rotate(-90 32.459 78.8887)" fill="#756BEE"/>
<path d="M73.8443 71.991L54.9775 82.8837L54.9775 61.0982L73.8443 71.991Z" fill="black"/>
<path fill-rule="evenodd" clip-rule="evenodd" d="M11.0651 127.577L10.5492 130.276L23.8171 130.276L24.3444 127.577H11.0651Z" fill="black"/>
</svg>
