<svg width="38" height="38" viewBox="0 0 38 38" fill="none" xmlns="http://www.w3.org/2000/svg">
<circle cx="19" cy="19" r="19" fill="#FFF9E7"/>
<path fill-rule="evenodd" clip-rule="evenodd" d="M14 28C12.9391 28 11.9217 27.5786 11.1716 26.8284C10.4214 26.0783 10 25.0609 10 24C10 22.527 11.333 17.86 14 10H16L14 20C15.0609 20 16.0783 20.4214 16.8284 21.1716C17.5786 21.9217 18 22.9391 18 24C18 25.0609 17.5786 26.0783 16.8284 26.8284C16.0783 27.5786 15.0609 28 14 28V28ZM24 28C22.9391 28 21.9217 27.5786 21.1716 26.8284C20.4214 26.0783 20 25.0609 20 24C20 22.527 21.333 17.86 24 10H26L24 20C25.0609 20 26.0783 20.4214 26.8284 21.1716C27.5786 21.9217 28 22.9391 28 24C28 25.0609 27.5786 26.0783 26.8284 26.8284C26.0783 27.5786 25.0609 28 24 28Z" fill="#F3A311"/>
</svg>
