<svg width="202" height="60" viewBox="0 0 202 60" fill="none" xmlns="http://www.w3.org/2000/svg">
<g clip-path="url(#clip0_14_109)">
<path d="M55.2766 37.8933C51.9937 37.8933 48.9175 36.5118 46.1227 34.2628L46.8032 31.0879L46.8328 30.9702C47.4388 27.5898 49.3614 21.9157 55.2766 21.9157C59.7127 21.9157 63.3211 25.5024 63.3211 29.9118C63.3061 34.3067 59.6981 37.8933 55.2766 37.8933ZM55.2766 13.8169C47.7197 13.8169 41.8641 18.6969 39.4835 26.7224C35.8455 21.2984 33.0949 14.7871 31.4832 9.30432H23.3499V30.338C23.3499 34.4831 19.9487 37.8635 15.7785 37.8635C11.6083 37.8635 8.20743 34.4831 8.20743 30.338V9.30432H0.0733807V30.338C0.0437909 38.9518 7.09762 46.0216 15.7631 46.0216C24.429 46.0216 31.4828 38.9518 31.4828 30.338V26.8106C33.0649 30.0882 35.002 33.3953 37.3534 36.3353L32.3697 59.6177H40.6955L44.3035 42.729C47.468 44.7428 51.106 46.0071 55.2762 46.0071C64.193 46.0071 71.4539 38.7459 71.4539 29.8824C71.4539 21.0337 64.193 13.8169 55.2762 13.8169H55.2766Z" fill="#6FDA44"/>
<path d="M96.2826 14.7283L101.532 35.762L107.314 14.7283H114.205L105.318 45.1251H98.4269L92.9705 23.9588L87.5283 45.1102H80.6375L71.7495 14.7137H78.6407L84.4226 35.7475L89.6722 14.7137H96.2822V14.7286L96.2826 14.7283ZM130.694 13.8169C121.747 13.8169 114.501 21.0337 114.501 29.9118C114.501 38.8047 121.762 46.0071 130.694 46.0071C139.64 46.0071 146.901 38.8047 146.901 29.9118C146.901 21.0192 139.64 13.8169 130.694 13.8169ZM130.694 39.3926C125.429 39.3926 121.17 35.1592 121.17 29.9267C121.17 24.6937 125.444 20.4608 130.694 20.4608C135.958 20.4608 140.217 24.6937 140.217 29.9267C140.217 35.1447 135.958 39.3926 130.694 39.3926ZM166.583 21.5337C161.955 21.5337 158.214 25.2671 158.214 29.853V45.1102H151.278V14.7283H158.214V19.4024C158.214 19.4024 161.171 14.7133 167.249 14.7133H169.378V21.5337H166.583ZM189.859 28.7361C194.783 25.9726 198.126 20.7251 198.126 14.7133H191.19C191.19 19.7843 187.05 23.9 181.948 23.9H181.016V0.0588379H174.081V45.1098H181.016V30.7937H181.845C182.525 30.7937 183.412 31.2349 183.811 31.7785L193.66 45.1102H201.97L189.859 28.7361Z" fill="black"/>
</g>
<defs>
<clipPath id="clip0_14_109">
<rect width="202" height="60" fill="white"/>
</clipPath>
</defs>
</svg>
