<svg width="51" height="51" viewBox="0 0 51 51" fill="none" xmlns="http://www.w3.org/2000/svg">
<circle cx="25.5" cy="25.5" r="25" stroke="#756BEE"/>
<path fill-rule="evenodd" clip-rule="evenodd" d="M14 26.067C14 32.033 18.333 36.994 24 38V29.333H21V26H24V23.333C24 20.333 25.933 18.667 28.667 18.667C29.533 18.667 30.467 18.8 31.333 18.933V22H29.8C28.333 22 28 22.733 28 23.667V26H31.2L30.667 29.333H28V38C33.667 36.994 38 32.034 38 26.067C38 19.43 32.6 14 26 14C19.4 14 14 19.43 14 26.067Z" fill="#756BEE"/>
</svg>
