<svg width="51" height="51" viewBox="0 0 51 51" fill="none" xmlns="http://www.w3.org/2000/svg">
<circle cx="25.5" cy="25.5" r="25" stroke="#756BEE"/>
<path d="M32.406 21.0338C33.2013 21.0338 33.846 20.3891 33.846 19.5938C33.846 18.7985 33.2013 18.1538 32.406 18.1538C31.6107 18.1538 30.966 18.7985 30.966 19.5938C30.966 20.3891 31.6107 21.0338 32.406 21.0338Z" fill="#756BEE"/>
<path d="M26 19.8379C24.7813 19.8379 23.5899 20.1993 22.5766 20.8764C21.5633 21.5535 20.7735 22.5158 20.3071 23.6418C19.8407 24.7678 19.7187 26.0067 19.9564 27.202C20.1942 28.3973 20.7811 29.4953 21.6428 30.3571C22.5046 31.2189 23.6026 31.8057 24.7979 32.0435C25.9932 32.2813 27.2322 32.1592 28.3581 31.6928C29.4841 31.2264 30.4464 30.4366 31.1235 29.4233C31.8006 28.41 32.162 27.2186 32.162 25.9999C32.162 24.3656 31.5128 22.7983 30.3572 21.6427C29.2016 20.4871 27.6343 19.8379 26 19.8379ZM26 29.9999C25.2089 29.9999 24.4355 29.7653 23.7777 29.3258C23.1199 28.8862 22.6072 28.2615 22.3045 27.5306C22.0017 26.7997 21.9225 25.9955 22.0769 25.2195C22.2312 24.4436 22.6122 23.7309 23.1716 23.1715C23.731 22.6121 24.4437 22.2311 25.2197 22.0767C25.9956 21.9224 26.7998 22.0016 27.5307 22.3044C28.2617 22.6071 28.8864 23.1198 29.3259 23.7776C29.7654 24.4354 30 25.2088 30 25.9999C30 27.0608 29.5786 28.0782 28.8284 28.8283C28.0783 29.5785 27.0609 29.9999 26 29.9999Z" fill="#756BEE"/>
<path d="M26 16.162C29.204 16.162 29.584 16.174 30.849 16.232C31.6098 16.241 32.3635 16.3807 33.077 16.645C33.5947 16.8447 34.0648 17.1505 34.4571 17.5429C34.8495 17.9352 35.1553 18.4053 35.355 18.923C35.6193 19.6365 35.759 20.3902 35.768 21.151C35.826 22.416 35.838 22.796 35.838 26.001C35.838 29.206 35.826 29.584 35.768 30.849C35.759 31.6098 35.6193 32.3635 35.355 33.077C35.1553 33.5947 34.8495 34.0648 34.4571 34.4571C34.0648 34.8495 33.5947 35.1553 33.077 35.355C32.3635 35.6193 31.6098 35.759 30.849 35.768C29.584 35.826 29.204 35.838 26 35.838C22.796 35.838 22.416 35.826 21.151 35.768C20.3902 35.759 19.6365 35.6193 18.923 35.355C18.4053 35.1553 17.9352 34.8495 17.5429 34.4571C17.1505 34.0648 16.8447 33.5947 16.645 33.077C16.3807 32.3635 16.241 31.6098 16.232 30.849C16.174 29.584 16.162 29.204 16.162 26C16.162 22.796 16.174 22.416 16.232 21.151C16.241 20.3902 16.3807 19.6365 16.645 18.923C16.8447 18.4053 17.1505 17.9352 17.5429 17.5429C17.9352 17.1505 18.4053 16.8447 18.923 16.645C19.6365 16.3807 20.3902 16.241 21.151 16.232C22.416 16.174 22.796 16.162 26 16.162ZM26 14C22.741 14 22.332 14.014 21.052 14.072C20.0568 14.0921 19.0722 14.2808 18.14 14.63C17.3427 14.9383 16.6187 15.4098 16.0142 16.0142C15.4098 16.6187 14.9383 17.3427 14.63 18.14C14.2807 19.0725 14.092 20.0574 14.072 21.053C14.014 22.333 14 22.74 14 26C14 29.26 14.014 29.668 14.072 30.948C14.0921 31.9432 14.2808 32.9278 14.63 33.86C14.9383 34.6573 15.4098 35.3813 16.0142 35.9858C16.6187 36.5902 17.3427 37.0617 18.14 37.37C19.0725 37.7193 20.0574 37.908 21.053 37.928C22.333 37.986 22.741 38 26 38C29.259 38 29.668 37.986 30.948 37.928C31.9436 37.908 32.9285 37.7193 33.861 37.37C34.6583 37.0617 35.3823 36.5902 35.9868 35.9858C36.5912 35.3813 37.0627 34.6573 37.371 33.86C37.72 32.9275 37.9083 31.9425 37.928 30.947C37.986 29.667 38 29.26 38 26C38 22.74 37.986 22.332 37.928 21.052C37.9079 20.0568 37.7192 19.0722 37.37 18.14C37.0617 17.3427 36.5902 16.6187 35.9858 16.0142C35.3813 15.4098 34.6573 14.9383 33.86 14.63C32.9275 14.281 31.9425 14.0927 30.947 14.073C29.667 14.013 29.26 14 26 14Z" fill="#756BEE"/>
</svg>
