<svg width="326" height="132" viewBox="0 0 326 132" fill="none" xmlns="http://www.w3.org/2000/svg">
<path fill-rule="evenodd" clip-rule="evenodd" d="M54.6084 4.49233C52.9291 4.32015 51.2248 4.23193 49.5 4.23193C47.9375 4.23193 46.3919 4.30433 44.8664 4.44595L43.5086 9.63182C45.4682 9.36811 47.4682 9.23193 49.5 9.23193C51.7096 9.23193 53.8816 9.39298 56.0049 9.70397L54.6084 4.49233ZM60.1788 10.5215C79.5979 15.3045 94 32.8363 94 53.7319C94 67.8781 87.3992 80.4826 77.1096 88.6335L78.5066 93.847C90.9232 84.8532 99 70.2358 99 53.7319C99 29.5458 81.6538 9.41101 58.7233 5.08968L60.1788 10.5215ZM0 53.7319C0 29.1134 17.972 8.6924 41.5118 4.87315L40.1106 10.2243C20.043 14.5344 5 32.3764 5 53.7319C5 66.6162 10.4757 78.2216 19.2269 86.348L17.8099 91.7597C6.92576 82.6796 0 69.0146 0 53.7319ZM74.3948 90.6223L75.7561 95.7024C68.1456 100.473 59.1449 103.232 49.5 103.232C44.224 103.232 39.1408 102.407 34.3724 100.878L35.6413 96.0316C40.0028 97.4596 44.6612 98.2319 49.5 98.2319C58.7225 98.2319 67.2897 95.4264 74.3948 90.6223ZM32.6831 94.9446C28.7709 93.3466 25.1371 91.2077 21.8745 88.6209L20.5041 93.8548C23.848 96.2755 27.5064 98.2885 31.4064 99.8208L32.6831 94.9446Z" fill="#756BEE"/>
<path d="M43.8496 3.74558L58.8319 3.74557L54.3341 14.7818L24.0869 127.666L11.3606 127.666L43.8496 3.74558Z" fill="#756BEE"/>
<path d="M43.0082 6.97949L55.6979 4.23245L75.0615 95.5526L62.1824 95.5526L43.0082 6.97949Z" fill="#756BEE"/>
<rect x="32.459" y="78.8887" width="12.9836" height="29.2131" transform="rotate(-90 32.459 78.8887)" fill="#756BEE"/>
<path d="M73.8443 71.991L54.9775 82.8837L54.9775 61.0982L73.8443 71.991Z" fill="black"/>
<path fill-rule="evenodd" clip-rule="evenodd" d="M11.0651 127.577L10.5492 130.276L23.8171 130.276L24.3444 127.577H11.0651Z" fill="black"/>
<path d="M128.133 39.9338C125.013 39.9338 120.203 41.5588 118.123 45.4588V22.0588L106.748 24.4638V25.5688C109.413 26.5438 110.063 27.5188 110.063 29.7288V70.2238C110.063 71.2638 114.093 69.8338 116.433 67.8188C118.318 69.7688 121.178 70.8738 124.558 71.1338V69.9638C121.243 69.3788 118.123 66.4538 118.123 59.1738V50.9188C118.123 46.3038 120.463 42.6638 124.883 42.6638C130.213 42.6638 132.618 46.0438 132.618 56.4438C132.618 65.4138 130.993 69.2488 127.223 69.8988V71.1338C135.673 70.6788 141.913 65.9338 141.913 55.9238C141.913 45.6538 135.413 39.9338 128.133 39.9338ZM156.719 62.6188V39.9338L145.279 42.5338V43.6388C147.944 45.0038 148.529 45.9788 148.529 48.1888V62.6188C148.529 65.9988 148.464 68.6638 145.929 69.4438V70.5488H159.384V69.4438C157.044 68.7938 156.719 66.2588 156.719 62.6188ZM164.389 40.2588C163.024 40.8438 160.879 41.6238 158.084 45.3288L158.734 46.2388C160.359 44.7438 161.789 44.7438 161.789 45.2638C161.789 46.4338 162.309 47.5388 163.284 48.4488C165.364 50.2038 168.354 49.9438 170.109 47.9288C171.864 45.9788 171.669 42.8588 169.654 41.1038C168.224 39.9338 165.754 39.6738 164.389 40.2588ZM181.184 50.8538C182.874 49.6838 183.329 47.4088 182.159 45.7188C181.574 44.8738 180.729 44.4188 179.754 44.2888C179.429 44.2888 179.494 43.6388 180.469 42.8588L180.014 41.8188C177.219 43.5088 176.439 45.0038 175.854 45.9788C175.204 47.0838 175.269 48.6438 176.049 49.8788C177.219 51.5688 179.494 51.9588 181.184 50.8538ZM201.204 67.1688C198.019 67.1688 198.084 62.6188 198.084 62.6188V52.9338C198.084 45.2638 195.744 39.9338 187.229 39.9338C187.229 39.9338 184.889 39.8038 182.419 40.6488L182.874 41.6238C186.774 40.4538 189.894 43.7688 189.894 49.8788V53.9088C178.519 56.7688 173.059 57.4188 173.059 64.5038C173.059 71.1338 180.534 71.1338 180.534 71.1338C183.719 71.1338 186.514 69.5738 188.269 67.9488L187.489 66.8438C186.969 67.1038 186.319 67.1688 185.604 67.1688C181.379 67.1688 181.379 62.8788 181.379 62.8788C181.379 59.5638 183.524 56.5088 189.894 55.0788V65.2838C189.894 71.1338 196.459 71.1338 196.459 71.1338C200.554 71.1338 203.544 68.5988 204.064 66.5188L202.959 66.0638C202.569 67.1688 201.204 67.1688 201.204 67.1688ZM217.086 62.5538V22.0588L205.711 24.7888V25.8938C208.311 26.8688 208.961 27.5188 208.961 29.7938V62.5538C208.961 65.8688 208.831 68.6638 206.361 69.3788V70.5488H219.751V69.3788C217.411 68.7938 217.086 66.1288 217.086 62.5538ZM236.001 62.5538V50.0088C236.001 42.2088 233.011 39.9338 227.811 39.9338C224.626 39.9338 220.596 42.1438 218.386 44.7438L219.231 46.1088C220.271 45.2638 221.441 44.8088 222.481 44.8088C226.251 44.8088 227.941 46.5638 227.941 50.2688V62.5538C227.941 65.8688 227.811 68.7288 225.341 69.4438V70.5488H238.666V69.4438C236.391 68.8588 236.001 66.1288 236.001 62.5538ZM250.5 50.8538C252.19 49.6838 252.645 47.4088 251.475 45.7188C250.89 44.8738 250.045 44.4188 249.07 44.2888C248.745 44.2888 248.81 43.6388 249.785 42.8588L249.33 41.8188C246.535 43.5088 245.755 45.0038 245.17 45.9788C244.52 47.0838 244.585 48.6438 245.365 49.8788C246.535 51.5688 248.81 51.9588 250.5 50.8538ZM270.52 67.1688C267.335 67.1688 267.4 62.6188 267.4 62.6188V52.9338C267.4 45.2638 265.06 39.9338 256.545 39.9338C256.545 39.9338 254.205 39.8038 251.735 40.6488L252.19 41.6238C256.09 40.4538 259.21 43.7688 259.21 49.8788V53.9088C247.835 56.7688 242.375 57.4188 242.375 64.5038C242.375 71.1338 249.85 71.1338 249.85 71.1338C253.035 71.1338 255.83 69.5738 257.585 67.9488L256.805 66.8438C256.285 67.1038 255.635 67.1688 254.92 67.1688C250.695 67.1688 250.695 62.8788 250.695 62.8788C250.695 59.5638 252.84 56.5088 259.21 55.0788V65.2838C259.21 71.1338 265.775 71.1338 265.775 71.1338C269.87 71.1338 272.86 68.5988 273.38 66.5188L272.275 66.0638C271.885 67.1688 270.52 67.1688 270.52 67.1688ZM286.013 62.7488V39.9338L274.638 42.5338V43.6388C277.303 45.0688 277.888 46.2388 277.888 48.5138V62.7488C277.888 66.0638 277.823 68.7288 275.353 69.4438V70.5488H288.678V69.4438C286.403 68.7938 286.013 66.3238 286.013 62.7488ZM322.023 62.6188V49.8138C322.023 41.9488 318.903 39.9338 313.833 39.9338C310.583 39.9338 307.333 42.1438 305.383 44.8088L306.293 45.8488C307.138 45.1338 308.178 44.6138 309.153 44.6138C312.078 44.6138 313.898 46.3688 313.898 50.0088V62.6188C313.898 65.9338 313.768 68.7288 311.298 69.4438V70.5488H324.688V69.4438C322.348 68.8588 322.023 66.1938 322.023 62.6188ZM304.018 62.6188V50.1388C304.018 45.6538 303.433 39.9338 295.828 39.9338C292.578 39.9338 289.588 42.1438 287.573 44.8088L288.353 45.8488C289.198 45.1338 290.238 44.6138 291.213 44.6138C294.138 44.6138 295.893 46.3688 295.893 50.0088V62.6188C295.893 65.9338 295.763 68.7288 293.293 69.4438V70.5488H306.683V69.4438C304.343 68.8588 304.018 66.1938 304.018 62.6188Z" fill="black"/>
<circle cx="300.547" cy="83.547" r="6.54699" fill="#756BEE"/>
<circle cx="153.547" cy="83.547" r="6.54699" fill="#756BEE"/>
</svg>
