<svg width="44" height="44" viewBox="0 0 44 44" fill="none" xmlns="http://www.w3.org/2000/svg">
<g clip-path="url(#clip0_12_83)">
<path d="M0 0H44V44H0V0Z" fill="#F7DF1E"/>
<path d="M11.5693 36.7696L14.9363 34.7318C15.586 35.8835 16.1769 36.8581 17.5943 36.8581C18.953 36.8581 19.8098 36.3266 19.8098 34.2593V20.2003H23.9446V34.3178C23.9446 38.6004 21.4342 40.5498 17.7715 40.5498C14.4638 40.5498 12.5438 38.8367 11.5691 36.7692M26.1905 36.3265L29.5572 34.3772C30.4435 35.8246 31.5955 36.8878 33.6332 36.8878C35.3466 36.8878 36.4391 36.0312 36.4391 34.8497C36.4391 33.4321 35.3167 32.9299 33.4264 32.1032L32.393 31.6597C29.4097 30.3901 27.4309 28.7951 27.4309 25.428C27.4309 22.3267 29.7937 19.9638 33.4857 19.9638C36.1144 19.9638 38.0047 20.8795 39.3632 23.2719L36.1436 25.3395C35.4346 24.0695 34.667 23.5675 33.4856 23.5675C32.2745 23.5675 31.5066 24.3354 31.5066 25.3395C31.5066 26.58 32.2745 27.0823 34.0466 27.8503L35.0802 28.2932C38.5951 29.7997 40.5739 31.3354 40.5739 34.7908C40.5739 38.5125 37.6499 40.5503 33.7217 40.5503C29.8822 40.5503 27.4012 38.7191 26.1903 36.3266" fill="black"/>
</g>
<defs>
<clipPath id="clip0_12_83">
<rect width="44" height="44" fill="white"/>
</clipPath>
</defs>
</svg>
