<svg width="58" height="52" viewBox="0 0 58 52" fill="none" xmlns="http://www.w3.org/2000/svg">
<g clip-path="url(#clip0_12_86)">
<path d="M47.6876 16.8372C47.0703 16.624 46.4478 16.4265 45.8207 16.2449C45.926 15.8115 46.023 15.3835 46.1091 14.9629C47.5224 8.05671 46.5985 2.49294 43.4427 0.661075C40.4169 -1.09506 35.4686 0.736111 30.4711 5.11437C29.9785 5.54664 29.4969 5.99137 29.0267 6.44813C28.712 6.1444 28.3916 5.84656 28.0659 5.55478C22.8282 0.873409 17.5783 -1.09963 14.4259 0.737479C11.4029 2.49909 10.5077 7.72943 11.7801 14.2746C11.9067 14.9228 12.0496 15.5677 12.2088 16.2086C11.4656 16.4212 10.7486 16.6474 10.0623 16.8883C3.92157 19.0435 0 22.421 0 25.9244C0 29.5427 4.20998 33.172 10.6058 35.3727C11.1244 35.5504 11.6472 35.715 12.1739 35.8664C12.0028 36.5567 11.851 37.2517 11.7185 37.9506C10.5055 44.3821 11.4527 49.4888 14.4676 51.2393C17.5815 53.047 22.8078 51.1891 27.8966 46.711C28.3093 46.3469 28.7128 45.9725 29.1069 45.5882C29.6161 46.0827 30.139 46.5629 30.6747 47.0282C35.6043 51.2981 40.4727 53.0223 43.4846 51.2671C46.5955 49.4542 47.6067 43.9682 46.294 37.2937C46.1906 36.7708 46.0746 36.2505 45.9462 35.7333C46.3132 35.6238 46.6735 35.5111 47.0246 35.3939C53.6738 33.1764 58 29.5911 58 25.9244C58 22.4083 53.9518 19.008 47.6876 16.8372ZM46.2455 33.0265C45.9283 33.1321 45.603 33.2341 45.2713 33.3333C44.5372 30.994 43.5467 28.5066 42.3343 25.9365C43.4912 23.4277 44.4436 20.9721 45.1571 18.6481C45.7504 18.8209 46.3261 19.0032 46.8812 19.1954C52.2485 21.0556 55.5223 23.8054 55.5223 25.9244C55.5223 28.1814 51.9866 31.1114 46.2455 33.0265ZM43.8634 37.7781C44.4439 40.7294 44.5266 43.3978 44.1421 45.4839C43.7968 47.3584 43.1022 48.608 42.243 49.1087C40.4154 50.1737 36.5065 48.7894 32.2908 45.1375C31.7925 44.7049 31.3061 44.2585 30.8324 43.7987C32.4669 41.9995 34.1001 39.9079 35.6942 37.5847C38.4982 37.3343 41.1471 36.9247 43.5494 36.3657C43.6651 36.834 43.7698 37.3049 43.8634 37.7781ZM19.7735 48.9246C17.9877 49.5593 16.5653 49.5776 15.7055 49.0786C13.876 48.0164 13.1155 43.916 14.1529 38.4158C14.2762 37.7659 14.4174 37.1195 14.5764 36.4774C16.9521 37.0066 19.5818 37.387 22.3923 37.6164C23.9973 39.8896 25.6777 41.979 27.3712 43.8085C27.0113 44.1591 26.6429 44.5007 26.2663 44.833C24.0159 46.8131 21.7609 48.218 19.7735 48.9246ZM11.4074 33.0126C8.57924 32.0394 6.24361 30.7748 4.64272 29.3947C3.20405 28.1547 2.47791 26.9234 2.47791 25.9244C2.47791 23.7983 5.62645 21.0866 10.8779 19.2435C11.5153 19.02 12.1823 18.8091 12.8744 18.6111C13.6003 20.9876 14.5523 23.4724 15.7012 25.9851C14.5374 28.5349 13.5718 31.0594 12.8388 33.464C12.3581 33.3253 11.8808 33.1748 11.4074 33.0126ZM14.2118 13.7954C13.1218 8.18785 13.8457 3.95783 15.6675 2.89616C17.6078 1.76539 21.8984 3.37762 26.4208 7.41994C26.7157 7.68413 27.0058 7.95367 27.291 8.22844C25.6059 10.05 23.9409 12.1239 22.3502 14.3836C19.6224 14.6381 17.0112 15.0468 14.6106 15.5944C14.4627 14.9983 14.3297 14.3985 14.2118 13.7956V13.7954ZM39.2304 20.0144C38.6634 19.0285 38.0753 18.0549 37.4666 17.0944C39.3172 17.33 41.0903 17.6427 42.7553 18.025C42.2555 19.6379 41.6324 21.324 40.8991 23.0528C40.363 22.0289 39.8067 21.0159 39.2304 20.0144ZM29.0279 10.011C30.1706 11.2574 31.3152 12.6489 32.441 14.1587C30.1573 14.0502 27.8697 14.0497 25.5859 14.1574C26.7129 12.6614 27.8672 11.2718 29.0279 10.011ZM18.7598 20.0315C18.1908 21.025 17.6448 22.0316 17.1225 23.0507C16.4011 21.3281 15.7837 19.6342 15.2796 17.9985C16.9344 17.6258 18.6991 17.3211 20.5379 17.0899C19.9224 18.0562 19.3296 19.037 18.7598 20.0313V20.0315ZM20.5907 34.9364C18.691 34.7229 16.8997 34.4339 15.2454 34.0713C15.7574 32.4064 16.3884 30.6765 17.1254 28.9169C17.6499 29.9368 18.1981 30.944 18.7696 31.9379C19.3573 32.9597 19.9658 33.9605 20.5907 34.9364ZM29.0963 42.0134C27.9218 40.738 26.7505 39.327 25.6065 37.8094C26.7172 37.8532 27.8493 37.8755 29 37.8755C30.1822 37.8755 31.3508 37.8488 32.5011 37.7973C31.3717 39.3422 30.2314 40.7554 29.0963 42.0134ZM40.9224 28.8271C41.6977 30.606 42.3511 32.3268 42.8699 33.9632C41.1884 34.3496 39.3727 34.6606 37.4596 34.8917C38.0726 33.9134 38.6663 32.9229 39.2402 31.9208C39.8236 30.9023 40.3845 29.8708 40.9224 28.8271ZM37.0939 30.6747C36.2154 32.211 35.2874 33.7182 34.3115 35.1939C32.5438 35.3199 30.7722 35.3825 29 35.3816C27.195 35.3816 25.4393 35.325 23.7487 35.2146C22.7474 33.7424 21.8017 32.2325 20.9138 30.6883H20.914C20.0302 29.1523 19.2047 27.583 18.4392 25.9839C19.2027 24.3845 20.0258 22.8144 20.9065 21.2773L20.9063 21.2775C21.7867 19.7399 22.7248 18.2365 23.7186 16.7706C25.4434 16.6392 27.2122 16.5708 28.9998 16.5708H29C30.7957 16.5708 32.5668 16.6399 34.2911 16.7722C35.2749 18.2359 36.207 19.7341 37.0858 21.264C37.9695 22.7978 38.8034 24.3602 39.5861 25.9486C38.8114 27.5532 37.9801 29.1296 37.0939 30.6747ZM42.2052 2.82181C44.1473 3.94939 44.9026 8.49643 43.6824 14.4593C43.6044 14.8397 43.517 15.2272 43.4218 15.6202C41.0153 15.061 38.4023 14.6452 35.6666 14.3868C34.073 12.1022 32.4215 10.0252 30.7638 8.22708C31.1983 7.80549 31.6431 7.39484 32.0978 6.9955C36.3798 3.24443 40.3818 1.76334 42.2052 2.82181ZM29 20.7107C31.8604 20.7107 34.1792 23.045 34.1792 25.9244C34.1792 28.8038 31.8604 31.1381 29 31.1381C26.1396 31.1381 23.8208 28.8038 23.8208 25.9244C23.8208 23.045 26.1396 20.7107 29 20.7107Z" fill="#00D8FF"/>
</g>
<defs>
<clipPath id="clip0_12_86">
<rect width="58" height="52" fill="white"/>
</clipPath>
</defs>
</svg>
